<svg viewBox="0 0 14 14" xmlns="http://www.w3.org/2000/svg"><path data-follow-fill="#001529" d="M3.5 3.68a3.714 3.714 0 0 0 1.75 3.19 3.341 3.341 0 0 0 3.5 0 3.714 3.714 0 0 0 1.75-3.19 3.5 3.5 0 1 0-7 0Zm0 0L1.05 9.21a3.917 3.917 0 0 1 2.8-.74q.705 4.425 1.75 4.42c1.05 0 1.05 0 1.05-.36a3.9 3.9 0 0 1-.36-.74 8.566 8.566 0 0 0 .25-2.21c.01-.32-.32-.58-.24-.74a.657.657 0 0 1 .7-.37.637.637 0 0 1 .7.37c.08.16-.25.42-.24.74a8.517 8.517 0 0 0 .25 2.21 3.9 3.9 0 0 1-.36.74c0 .36 0 .36 1.05.36q1.05 0 1.75-4.42a3.917 3.917 0 0 1 2.8.74 3.276 3.276 0 0 1 1.05 2.3v1.75a.733.733 0 0 1-.2.52.7.7 0 0 1-.5.22H.7a.7.7 0 0 1-.5-.22.733.733 0 0 1-.2-.52v-1.75a3.276 3.276 0 0 1 1.05-2.3Zm0 0" data-name="形状 27" fill-rule="evenodd"/></svg>
